<?xml version="1.0" encoding="UTF-8"?>
<svg id="Layer_1" xmlns="http://www.w3.org/2000/svg" version="1.1" viewBox="0 0 522.22 88.29">
  <!-- Generator: Adobe Illustrator 29.1.0, SVG Export Plug-In . SVG Version: 2.1.0 Build 142)  -->
  <defs>
    <style>
      .st0 {
        fill: #231f20;
      }
    </style>
  </defs>
  <path class="st0" d="M46.66,44.15c-1.11,0-1.99.32-2.64.97s-.97,1.52-.97,2.64.32,1.99.97,2.64,1.52.97,2.64.97h22.79v10.78h-22.79c-1.11,0-1.99.32-2.64.97s-.97,1.52-.97,2.64v10.81h-26.4V26.16h52.79v17.99h-22.79Z"/>
  <path class="st0" d="M90.52,52.32c-.63.64-.95,1.52-.95,2.64s.32,1.99.95,2.64c.63.64,1.51.97,2.62.97h20.42v17.99h-14.41c-7.68,0-13.79-2.28-18.35-6.84-4.56-4.56-6.84-10.68-6.84-18.35s2.28-13.79,6.84-18.35,10.68-6.84,18.35-6.84h14.41v25.2h-20.42c-1.11,0-1.99.32-2.62.97ZM94.04,43.27c.99,1,2.29,1.49,3.91,1.49s2.93-.5,3.93-1.49,1.49-2.3,1.49-3.93-.5-2.92-1.49-3.91c-1-.99-2.3-1.48-3.93-1.48s-2.93.49-3.91,1.48-1.48,2.29-1.48,3.91.49,2.93,1.48,3.93Z"/>
  <path class="st0" d="M140.25,47.75c4.14,0,7.48,1.32,10,3.96,2.53,2.64,3.79,6.11,3.79,10.43s-1.26,7.8-3.79,10.44c-2.53,2.65-5.86,3.97-10,3.97h-21.01v-17.99h12.01c1.07,0,1.94-.33,2.59-.98s.98-1.53.98-2.62-.33-1.97-.98-2.62c-.65-.65-1.52-.98-2.59-.98h-.62c-3.77,0-6.81-1.15-9.13-3.46-2.31-2.3-3.47-5.35-3.47-9.14s1.16-6.84,3.47-9.14c2.31-2.3,5.36-3.46,9.13-3.46h22.21v14.38h-13.21c-1.09,0-1.97.33-2.62.98s-.98,1.53-.98,2.62.33,1.97.98,2.62c.65.65,1.53.98,2.62.98h.62Z"/>
  <path class="st0" d="M178.69,52.35c-.65.66-.98,1.53-.98,2.61s.33,1.94.98,2.61c.65.66,1.53,1,2.62,1h13.21v17.99h-14.41c-6.46,0-11.68-1.98-15.64-5.95-3.97-3.96-5.95-9.18-5.95-15.64V18.95h19.19v13.18c0,1.45.44,2.61,1.33,3.49.89.88,2.05,1.32,3.47,1.32h12.01v14.41h-13.21c-1.09,0-1.97.33-2.62,1Z"/>
  <path class="st0" d="M252.7,44.15c-1.11,0-1.99.32-2.64.97s-.97,1.52-.97,2.64.32,1.99.97,2.64,1.52.97,2.64.97h22.79v10.78h-22.79c-1.11,0-1.99.32-2.64.97s-.97,1.52-.97,2.64v10.81h-26.4V26.16h52.79v17.99h-22.79Z"/>
  <path class="st0" d="M283.75,26.5c2.09-1.03,4.84-1.54,8.26-1.54s6.17.51,8.26,1.54c2.09,1.03,3.13,2.38,3.13,4.06v3.52c0,1.68-1.04,3.02-3.13,4.05-2.09,1.02-4.84,1.54-8.26,1.54s-6.17-.51-8.26-1.54c-2.09-1.02-3.13-2.37-3.13-4.05v-3.52c0-1.67,1.04-3.03,3.13-4.06ZM281.2,40.54h21.59v36.01h-21.59v-36.01Z"/>
  <path class="st0" d="M335.47,27.92c1.98-1.97,4.59-2.96,7.84-2.96s5.85.99,7.82,2.96c1.97,1.97,2.96,4.58,2.96,7.82v40.81h-16.79v-9.61c0-1.45-.44-2.61-1.33-3.49s-2.05-1.32-3.47-1.32-2.58.44-3.47,1.32-1.33,2.04-1.33,3.49v9.61h-19.19V26.16h16.79v17.99c0,1.09.33,1.97.98,2.62.65.65,1.53.98,2.62.98s1.97-.33,2.62-.98c.65-.65.98-1.53.98-2.62v-8.41c0-3.24.99-5.85,2.97-7.82Z"/>
  <path class="st0" d="M410.18,76.55h-27.6c-4.51,0-8.5-1.04-11.95-3.13-3.46-2.09-6.13-5.04-8.01-8.86-1.88-3.82-2.83-8.22-2.83-13.2v-14.41c0-3.59,1.1-6.49,3.3-8.69s5.1-3.3,8.72-3.3,6.49,1.1,8.69,3.3,3.3,5.09,3.3,8.69v7.21c0,1.09.33,1.97.98,2.62.65.65,1.53.98,2.62.98s1.97-.33,2.62-.98c.65-.65.98-1.53.98-2.62V11.74h19.19v64.8ZM372.24,62.9c1.09,1.09,2.54,1.64,4.34,1.64s3.25-.55,4.35-1.64c1.1-1.09,1.66-2.54,1.66-4.34s-.55-3.25-1.66-4.35c-1.1-1.1-2.55-1.66-4.35-1.66s-3.24.55-4.34,1.66c-1.09,1.1-1.64,2.55-1.64,4.35s.55,3.24,1.64,4.34Z"/>
  <path class="st0" d="M431.26,52.32c-.63.64-.95,1.52-.95,2.64s.32,1.99.95,2.64,1.51.97,2.62.97h20.42v17.99h-14.41c-7.68,0-13.79-2.28-18.35-6.84-4.56-4.56-6.84-10.68-6.84-18.35s2.28-13.79,6.84-18.35c4.56-4.56,10.68-6.84,18.35-6.84h14.41v25.2h-20.42c-1.11,0-1.99.32-2.62.97ZM434.77,43.27c.99,1,2.29,1.49,3.91,1.49s2.93-.5,3.93-1.49,1.49-2.3,1.49-3.93-.5-2.92-1.49-3.91c-1-.99-2.3-1.48-3.93-1.48s-2.92.49-3.91,1.48c-.99.99-1.48,2.29-1.48,3.91s.49,2.93,1.48,3.93Z"/>
  <path class="st0" d="M486.94,27.92c1.98-1.97,4.59-2.96,7.84-2.96s5.85.99,7.82,2.96c1.97,1.97,2.96,4.58,2.96,7.82v19.22h-16.79c-2.89,0-5.21.87-6.97,2.62-1.76,1.75-2.64,4.07-2.64,6.96v12.01h-19.19V26.16h16.79v17.99c0,1.09.33,1.97.98,2.62.65.65,1.53.98,2.62.98s1.97-.33,2.62-.98c.65-.65.98-1.53.98-2.62v-8.41c0-3.24.99-5.85,2.97-7.82Z"/>
</svg>
