<?xml version="1.0" encoding="UTF-8"?><svg id="Layer_1" xmlns="http://www.w3.org/2000/svg" viewBox="0 0 1891.05 1093.99"><defs><style>.cls-1{fill:#e5b789;}.cls-2{fill:#232323;}.cls-3,.cls-4{stroke:#000;stroke-miterlimit:10;stroke-width:6px;}.cls-3,.cls-4,.cls-5{fill:#fff;}.cls-4{font-family:MorageDEMO, 'Morage DEMO';font-size:535.96px;}.cls-6{letter-spacing:.23em;}.cls-7{letter-spacing:-.02em;}</style></defs><path id="globe" d="M934.78,65.98c-274.29,0-497.44,223.15-497.44,497.44s223.15,497.44,497.44,497.44,497.44-223.15,497.44-497.44-223.15-497.44-497.44-497.44ZM922.53,551.16h-239.81c1.24-91.42,16.3-178.45,43.47-252.82,64.04,15.63,129.97,24.01,196.34,24.92v227.89ZM922.53,575.66v227.89c-66.37.92-132.3,9.29-196.34,24.92-27.16-74.37-42.22-161.39-43.47-252.82h239.81ZM947.03,575.66h239.81c-1.24,91.42-16.3,178.45-43.47,252.81-64.04-15.63-129.97-24-196.34-24.92v-227.89ZM947.03,551.16v-227.89c66.37-.92,132.3-9.29,196.34-24.92,27.16,74.37,42.22,161.39,43.47,252.82h-239.81ZM947.03,298.77V91.04c61.42,5.58,119.26,53.08,164,135.16,8.45,15.51,16.2,31.96,23.32,49.14-61.13,14.67-124.02,22.53-187.32,23.43ZM922.53,298.77c-63.31-.9-126.2-8.76-187.32-23.43,7.12-17.18,14.87-33.63,23.32-49.14,44.74-82.08,102.58-129.58,164-135.16v207.73ZM658.22,551.16h-196.22c2.96-115.74,47.72-221.25,119.69-302.02,38.94,17.21,79.44,31.64,120.72,43-27.64,76.59-42.96,165.67-44.19,259.01ZM658.22,575.66c1.24,93.34,16.56,182.42,44.19,259.01-41.29,11.36-81.79,25.8-120.73,43-71.97-80.77-116.73-186.28-119.69-302.02h196.22ZM922.53,828.06v207.74c-61.42-5.58-119.26-53.08-164-135.16-8.45-15.51-16.2-31.96-23.32-49.14,61.13-14.67,124.02-22.53,187.32-23.43ZM947.03,828.06c63.31.9,126.2,8.77,187.33,23.43-7.12,17.18-14.87,33.63-23.32,49.14-44.74,82.08-102.58,129.58-164,135.16v-207.74ZM1211.33,575.66h196.22c-2.96,115.74-47.72,221.25-119.69,302.02-38.93-17.21-79.43-31.64-120.73-43,27.64-76.59,42.95-165.67,44.19-259.01ZM1211.33,551.16c-1.24-93.34-16.56-182.42-44.2-259.01,41.28-11.36,81.78-25.79,120.72-43,71.97,80.77,116.73,186.28,119.69,302.02h-196.22ZM1270.08,230.22c-36.14,15.53-73.62,28.56-111.74,38.93-7.8-19.16-16.4-37.45-25.8-54.68-26.87-49.3-58.53-87.16-93.2-112.32,88.99,20.16,168.53,65.48,230.73,128.07ZM830.21,102.15c-34.67,25.17-66.32,63.03-93.2,112.32-9.39,17.23-17.99,35.51-25.8,54.68-38.13-10.38-75.6-23.4-111.74-38.93,62.2-62.59,141.74-107.91,230.73-128.07ZM599.47,896.61c36.13-15.52,73.61-28.55,111.74-38.93,7.8,19.17,16.4,37.45,25.8,54.68,26.87,49.3,58.53,87.15,93.19,112.32-88.99-20.16-168.53-65.48-230.73-128.07ZM1039.35,1024.68c34.67-25.17,66.32-63.03,93.2-112.32,9.39-17.23,17.99-35.52,25.8-54.68,38.14,10.38,75.62,23.41,111.74,38.93-62.2,62.59-141.74,107.91-230.73,128.07Z"/><g id="STARS2"><path d="M1412.8,997.79s-.09-.02-.13-.04c-.02,0-.04-.02-.06-.02-.08-.02-.17-.04-.24-.06-1.81-.5-3.59-1.09-5.32-1.8-.03-.02-.06-.03-.09-.04.02,0,.04.02.06.02-3.57-1.53-6.79-3.9-9.56-6.6,0,.01.02.02.03.03-.03-.03-.06-.06-.1-.1.01,0,.02.01.03.02-7.35-7.37-10.64-17.17-13.26-27.04-.02-.07-.04-.14-.05-.21,0-.02-.01-.03-.01-.04-.59-2.26-.9-4.58-1.21-6.89-.01-.1-.03-.2-.04-.3-.42-3.45-.93-7.17-.96-10.65v-.03c0-.11,0-.22.01-.33.03-.08.04-.17.05-.26h0s0-.07,0-.11h0c-.11-.74-.6-.85-1.07-.68-.47-.17-.96-.07-1.07.68v-.06c0,.06-.01.11,0,.17,0,.1.02.18.05.27,0,.11,0,.21,0,.31v.05c-.03,3.49-.54,7.21-.96,10.67,0,0,0,0,0-.01-.02.14-.04.28-.06.43,0-.05.02-.09.02-.13-.31,2.31-.62,4.63-1.21,6.89,0,.02,0,.03-.01.04-.02.09-.05.17-.07.25-2.61,9.85-5.91,19.64-13.24,27,0,0,.02-.01.02-.02-.03.03-.06.06-.1.1,0-.01.02-.02.03-.03-2.78,2.7-5.99,5.07-9.56,6.6.02,0,.04-.02.06-.02-.04.02-.09.03-.12.05-1.73.7-3.49,1.28-5.29,1.78-.04.01-.09.02-.13.04-.04.01-.08.02-.12.03-.02,0-.04.01-.06.02-.04.02-.09.03-.13.04-1.02.27-7.19.96-6.82,2.73.06.3.25.5.53.62.63.86,3.96.61,4.98.74,2.4.32,4.76.86,7.11,1.49.02,0,.03,0,.05.01,2.46.69,4.77,1.72,6.99,2.99,9.34,5.6,14.12,15.92,15.57,26.39.03.23.06.46.1.7v.02c.67,5.34.98,10.71,1.66,16.05.13,1.02-.19,6.84,1.48,6.97.12.01.23,0,.33-.05.1.04.2.06.32.05,1.66-.13,1.35-5.95,1.48-6.97.69-5.38,1-10.8,1.68-16.18,0,.05-.02.09-.02.13.03-.2.05-.39.08-.59,1.42-10.52,6.21-20.89,15.58-26.52,2.22-1.27,4.55-2.31,7.02-3,.01,0,.02,0,.03,0,2.34-.62,4.7-1.16,7.1-1.49,1.02-.13,4.34.12,4.98-.74.28-.12.47-.31.53-.62.37-1.76-5.8-2.46-6.82-2.73Z"/><path d="M1769.34,1020.49c-.05-.01-.11-.03-.17-.05-.03,0-.05-.02-.08-.03-.1-.02-.21-.05-.31-.08-2.26-.63-4.49-1.37-6.66-2.25-.04-.02-.07-.03-.11-.05.03,0,.05.02.08.03-4.47-1.92-8.5-4.88-11.97-8.26,0,.01.02.03.03.04-.04-.04-.08-.08-.13-.12.01,0,.02.01.03.02-9.21-9.23-13.33-21.51-16.6-33.86-.03-.09-.05-.17-.07-.26,0-.02-.01-.03-.01-.05-.74-2.83-1.13-5.74-1.52-8.63-.01-.13-.03-.25-.05-.37-.53-4.32-1.17-8.98-1.21-13.34v-.04c0-.13,0-.27.01-.41.03-.1.05-.21.06-.32h0c0-.05,0-.09,0-.14h0c-.14-.93-.75-1.06-1.34-.85-.59-.21-1.21-.09-1.34.85v-.08c0,.07-.01.14,0,.21,0,.12.02.23.06.33,0,.13,0,.26,0,.39v.07c-.03,4.37-.67,9.03-1.21,13.35,0,0,0,0,0-.01-.03.18-.05.35-.07.54,0-.06.02-.11.03-.17-.39,2.9-.78,5.8-1.52,8.63,0,.02,0,.03-.01.05-.03.11-.06.21-.09.31-3.27,12.33-7.4,24.59-16.58,33.81,0,0,.02-.01.03-.02-.04.04-.08.08-.12.12,0-.01.02-.03.03-.04-3.48,3.38-7.5,6.34-11.97,8.26.03,0,.05-.02.08-.03-.05.02-.11.04-.15.06-2.16.87-4.37,1.61-6.62,2.23-.05.01-.11.03-.17.05-.05.01-.1.03-.15.04-.03,0-.05.01-.07.02-.05.02-.11.03-.17.05-1.28.34-9.01,1.21-8.55,3.42.08.38.31.63.67.77.79,1.08,4.96.77,6.23.93,3.01.41,5.96,1.08,8.9,1.86.02,0,.04,0,.06.01,3.08.87,5.98,2.15,8.75,3.75,11.69,7.02,17.68,19.93,19.49,33.04.04.29.08.58.12.87v.03c.84,6.68,1.23,13.41,2.08,20.09.17,1.28-.23,8.57,1.85,8.73.15.01.29,0,.41-.06.12.05.25.07.41.06,2.08-.16,1.69-7.44,1.85-8.73.87-6.74,1.25-13.52,2.11-20.26,0,.06-.02.11-.03.17.03-.25.07-.49.1-.73,1.78-13.17,7.77-26.16,19.51-33.21,2.78-1.59,5.7-2.89,8.78-3.76.01,0,.02,0,.03,0,2.93-.78,5.88-1.45,8.89-1.86,1.28-.16,5.44.15,6.23-.93.35-.15.59-.39.67-.77.46-2.21-7.26-3.08-8.54-3.42Z"/><path d="M1859.06,890.88s-.06-.01-.09-.02c-.01,0-.03-.01-.04-.01-.05-.01-.11-.03-.16-.04-1.18-.33-2.35-.72-3.49-1.18-.02-.01-.04-.02-.06-.02.01,0,.03.01.04.01-2.34-1.01-4.45-2.55-6.26-4.32,0,0,.01.01.02.02-.02-.02-.04-.04-.07-.06,0,0,.01,0,.02.01-4.82-4.83-6.97-11.25-8.69-17.72-.01-.05-.02-.09-.03-.14,0-.01,0-.02,0-.03-.39-1.48-.59-3-.8-4.52,0-.07-.02-.13-.02-.2-.28-2.26-.61-4.7-.63-6.98v-.02c0-.07,0-.14,0-.22.02-.05.03-.11.03-.17h0s0-.05,0-.07h0c-.07-.48-.39-.55-.7-.44-.31-.11-.63-.05-.7.44v-.04s0,.07,0,.11c0,.06.01.12.03.17,0,.07,0,.14,0,.2v.03c-.02,2.29-.35,4.72-.63,6.99,0,0,0,0,0,0-.01.09-.02.18-.04.28,0-.03.01-.06.01-.09-.21,1.51-.41,3.04-.8,4.52,0,.01,0,.02,0,.03-.01.06-.03.11-.05.16-1.71,6.45-3.87,12.87-8.68,17.69,0,0,.01,0,.01-.01-.02.02-.04.04-.06.06,0,0,.01-.01.02-.02-1.82,1.77-3.93,3.32-6.26,4.32.01,0,.03-.01.04-.01-.03.01-.06.02-.08.03-1.13.46-2.29.84-3.47,1.17-.03,0-.06.01-.09.02-.03,0-.05.01-.08.02-.01,0-.02,0-.04.01-.03.01-.06.02-.09.02-.67.18-4.71.63-4.47,1.79.04.2.16.33.35.4.42.57,2.59.4,3.26.49,1.57.21,3.12.57,4.66.97.01,0,.02,0,.03,0,1.61.45,3.13,1.13,4.58,1.96,6.12,3.67,9.25,10.43,10.2,17.29.02.15.04.3.06.46h0c.44,3.51.64,7.03,1.09,10.53.09.67-.12,4.48.97,4.56.08,0,.15,0,.22-.03.06.03.13.04.21.03,1.09-.08.88-3.89.97-4.56.45-3.52.65-7.07,1.1-10.6,0,.03-.01.06-.01.09.02-.13.03-.25.05-.38.93-6.89,4.07-13.69,10.21-17.37,1.46-.83,2.98-1.51,4.6-1.96,0,0,.01,0,.02,0,1.53-.41,3.08-.76,4.65-.97.67-.08,2.84.08,3.26-.49.18-.08.31-.21.35-.4.24-1.16-3.8-1.61-4.47-1.79Z"/><g id="STARS"><path d="M44.67,511.94s-.06-.01-.08-.02c-.01,0-.03,0-.04-.01-.05,0-.1-.03-.15-.04-1.12-.31-2.23-.68-3.31-1.12-.02,0-.04-.02-.06-.02.01,0,.03,0,.04.01-2.22-.95-4.22-2.43-5.95-4.11,0,0,0,.01.02.02-.02-.02-.04-.04-.06-.06,0,0,0,0,.02,0-4.57-4.58-6.62-10.69-8.25-16.82-.01-.04-.02-.09-.03-.13,0,0,0-.02,0-.03-.37-1.41-.56-2.85-.76-4.29,0-.06-.02-.12-.02-.19-.26-2.15-.58-4.46-.6-6.63v-.02c0-.07,0-.14,0-.21.02-.05.03-.1.03-.16h0s0-.05,0-.07h0c-.07-.46-.37-.53-.67-.42-.29-.11-.6-.04-.67.42v-.04s0,.07,0,.1c0,.06,0,.11.03.17,0,.07,0,.13,0,.19v.03c-.02,2.17-.33,4.48-.6,6.64,0,0,0,0,0,0-.01.09-.02.18-.04.27,0-.03,0-.06.01-.08-.2,1.44-.39,2.88-.76,4.29,0,0,0,.02,0,.03-.01.05-.03.1-.04.16-1.62,6.13-3.68,12.22-8.24,16.8,0,0,0,0,.01,0-.02.02-.04.04-.06.06,0,0,0-.01.02-.02-1.73,1.68-3.73,3.15-5.95,4.11.01,0,.03,0,.04-.01-.03,0-.05.02-.08.03-1.07.43-2.17.8-3.29,1.11-.03,0-.05.01-.08.02-.03,0-.05.01-.08.02-.01,0-.02,0-.04,0-.03,0-.05.02-.08.02-.64.17-4.47.6-4.25,1.7.04.19.16.31.33.38.39.54,2.46.38,3.1.46,1.49.2,2.96.54,4.42.92,0,0,.02,0,.03,0,1.53.43,2.97,1.07,4.35,1.86,5.81,3.49,8.79,9.9,9.68,16.42.02.15.04.29.06.43h0c.42,3.33.61,6.68,1.03,10,.08.64-.12,4.26.92,4.34.08,0,.15,0,.21-.03.06.03.13.04.2.03,1.03-.08.84-3.7.92-4.34.43-3.35.62-6.72,1.05-10.07,0,.03,0,.06-.01.08.02-.12.03-.24.05-.36.88-6.54,3.86-13,9.69-16.5,1.38-.79,2.83-1.44,4.37-1.87,0,0,0,0,.02,0,1.46-.39,2.92-.72,4.42-.92.64-.08,2.7.08,3.1-.46.18-.07.29-.2.33-.38.23-1.1-3.61-1.53-4.25-1.7Z"/><path d="M266.5,526.07s-.07-.02-.1-.03c-.02,0-.03-.01-.05-.02-.06-.01-.13-.03-.19-.05-1.41-.39-2.79-.85-4.15-1.4-.02-.01-.05-.02-.07-.03.02,0,.03.01.05.02-2.78-1.2-5.29-3.04-7.45-5.14,0,0,.01.02.02.02-.02-.02-.05-.05-.08-.07,0,0,.01,0,.02.01-5.73-5.74-8.29-13.38-10.33-21.07-.02-.05-.03-.11-.04-.16,0-.01,0-.02,0-.03-.46-1.76-.7-3.57-.95-5.37,0-.08-.02-.15-.03-.23-.33-2.69-.73-5.59-.75-8.3v-.02c0-.08,0-.17,0-.26.02-.06.03-.13.04-.2h0s0-.06,0-.09h0c-.09-.58-.47-.66-.83-.53-.37-.13-.75-.05-.83.53v-.05s0,.09,0,.13c0,.07.01.14.04.21,0,.08,0,.16,0,.24v.04c-.02,2.72-.42,5.62-.75,8.31,0,0,0,0,0,0-.02.11-.03.22-.05.34,0-.04.01-.07.02-.1-.24,1.8-.49,3.61-.95,5.37,0,.01,0,.02,0,.03-.02.07-.04.13-.05.19-2.03,7.67-4.6,15.3-10.32,21.03,0,0,.01,0,.02-.01-.02.02-.05.05-.07.07,0,0,.01-.02.02-.02-2.16,2.1-4.67,3.95-7.45,5.14.02,0,.03-.01.05-.02-.03.01-.07.02-.1.04-1.34.54-2.72,1-4.12,1.39-.03,0-.07.02-.1.03-.03,0-.06.02-.1.02-.02,0-.03,0-.05.01-.03.01-.07.02-.1.03-.8.21-5.6.75-5.32,2.12.05.24.2.39.42.48.49.67,3.08.48,3.88.58,1.87.25,3.71.67,5.54,1.16.01,0,.02,0,.04,0,1.91.54,3.72,1.34,5.45,2.33,7.28,4.37,11,12.4,12.13,20.56.02.18.05.36.07.54v.02c.52,4.16.76,8.34,1.29,12.5.1.8-.15,5.33,1.15,5.43.1,0,.18,0,.26-.04.07.03.16.05.25.04,1.29-.1,1.05-4.63,1.15-5.43.54-4.19.78-8.41,1.31-12.6,0,.04-.01.07-.02.1.02-.15.04-.3.06-.46,1.11-8.19,4.83-16.28,12.14-20.66,1.73-.99,3.54-1.8,5.47-2.34,0,0,.01,0,.02,0,1.82-.49,3.66-.9,5.53-1.16.8-.1,3.38.1,3.88-.58.22-.09.37-.24.41-.48.29-1.37-4.52-1.91-5.32-2.12Z"/><path d="M322.32,445.42s-.04,0-.05-.02c0,0-.02,0-.03,0-.03,0-.07-.02-.1-.03-.74-.2-1.46-.45-2.17-.73-.01,0-.02-.01-.04-.02,0,0,.02,0,.03,0-1.45-.63-2.77-1.59-3.9-2.69,0,0,0,0,.01.01-.01-.01-.03-.03-.04-.04,0,0,0,0,.01,0-3-3-4.34-7-5.4-11.02,0-.03-.02-.06-.02-.08,0,0,0-.01,0-.02-.24-.92-.37-1.87-.5-2.81,0-.04-.01-.08-.02-.12-.17-1.41-.38-2.92-.39-4.34h0c0-.06,0-.1,0-.15.01-.03.02-.07.02-.1h0s0-.03,0-.05h0c-.05-.3-.25-.35-.44-.28-.19-.07-.39-.03-.44.28v-.03s0,.05,0,.07c0,.04,0,.07.02.11,0,.04,0,.08,0,.13v.02c-.01,1.42-.22,2.94-.39,4.35,0,0,0,0,0,0,0,.06-.02.12-.02.18,0-.02,0-.04,0-.05-.13.94-.25,1.89-.5,2.81,0,0,0,.01,0,.02,0,.03-.02.07-.03.1-1.06,4.01-2.41,8.01-5.4,11,0,0,0,0,0,0-.01.01-.03.03-.04.04,0,0,0,0,.01-.01-1.13,1.1-2.44,2.06-3.9,2.69,0,0,.02,0,.03,0-.02,0-.03.01-.05.02-.7.28-1.42.52-2.16.73-.02,0-.03,0-.05.02-.02,0-.03,0-.05.01,0,0-.02,0-.02,0-.02,0-.03.01-.05.02-.42.11-2.93.39-2.78,1.11.03.12.1.2.22.25.26.35,1.61.25,2.03.3.98.13,1.94.35,2.9.61,0,0,.01,0,.02,0,1,.28,1.95.7,2.85,1.22,3.81,2.28,5.76,6.49,6.34,10.75.01.1.03.19.04.28h0c.27,2.18.4,4.37.68,6.55.05.42-.08,2.79.6,2.84.05,0,.1,0,.13-.02.04.02.08.02.13.02.68-.05.55-2.42.6-2.84.28-2.19.41-4.4.69-6.59,0,.02,0,.04,0,.05.01-.08.02-.16.03-.24.58-4.29,2.53-8.52,6.35-10.81.91-.52,1.85-.94,2.86-1.22,0,0,0,0,.01,0,.95-.25,1.92-.47,2.89-.61.42-.05,1.77.05,2.03-.3.12-.05.19-.13.22-.25.15-.72-2.36-1-2.78-1.11Z"/></g></g><g id="FONT_GLARE"><g id="font"><rect x="440.37" y="508.44" width="294.84" height="193.63"/><path d="M172.35,396.72c.31,1.43,1.75,2.67,4.3,3.74,13.31,6.35,26.76,14.77,36.05,26.41,7.48,9.37,12.75,20.57,15.51,32.17,4,16.77,1.72,37.57-13.88,47.84-19.86,13.08-46.67,12.83-68.75,10.04-11.47-1.45-23.2-4.09-34.24-7.59-11.21-3.54-22.46-8.16-32.6-13.84-9.21-5.16-18.41-11.93-25.98-19.72-6.4-6.59-12.81-16.58-15.28-25.58-1.88-6.86-3.2-14.14-4.09-21.58-.89-7.44-1.96-14.66-3.29-21.49-3.46-17.72-7.18-35.82-9.96-53.6-2.73-17.49-4.66-35.61-5.4-53.17-.68-16.11-.14-32.91,1.79-48.77,1.92-15.8,5.79-31.86,11.87-46.3,6.13-14.54,15.15-27.83,25.97-39.61,12.05-13.12,28.26-22.62,44.44-28.76,11.53-4.37,23.6-6.95,36.08-8.25,12.08-1.26,24.92-1.7,37.35-2.06,6.14-.18,12.27-.07,18.24.22,5.98.29,12.08.64,18.2.89,7.56.32,14.92.77,21.94,1.52,7.01.75,13.62,2.4,19.78,4.99,6.16,2.59,11.79,6.46,16.89,11.6,5.11,5.14,9.75,12.23,14.1,21.19,6.57,14.01,9.59,29.04,10.15,43.67.42,10.9-.18,22.81-3.65,33.78-3.02,9.54-7.25,17.57-12.96,24-5.72,6.43-12.62,11.04-20.85,13.89-8.23,2.85-17.23,3.8-27.02,2.92-3.85-.35-7.36-.67-10.53-.97s-6.55-.8-10.14-1.53c-5.59-.99-8.39-1.49-14.01-2.5-3.98-.76-7.57-1.32-10.79-1.64-3.22-.33-6.63-.67-10.22-1.05-2.88-.3-5.68-.03-8.41.79-2.73.82-3.83,3.11-3.27,6.85.56,3.75,2.8,6.02,6.67,6.82,3.87.81,7.08,1.35,9.61,1.63,11.76,1.33,23.85,2.57,35.3,4.31,12.09,1.84,23.3,4.81,34.62,9.34,10.92,4.37,20.99,12.17,28.86,21.13,9.64,10.98,16.04,25.55,19.4,39.6,2.99,12.51,7.46,30.96-3.79,40.15-11.16,9.11-27.64,7.92-41.4,6.63-5.53-.52-11.78-2.14-18.29-4.36-6.51-2.22-12.91-4.62-19.17-7.2-6.25-2.58-12.01-4.93-17.22-7.05-5.22-2.12-9.59-3.44-13.13-3.95-1.97-.29-4.02-.06-6.15.66-2.14.72-3.03,1.97-2.64,3.75Z"/><path d="M392.45,387.13c.83,2.6,2.45,5.32,4.85,8.17,2.4,2.84,4.42,5.2,6.03,7.08,12.49,13.23,26.13,26.07,42.49,33.59,14.05,6.46,28.63,11.07,44.59,11.13,7.21.03,13.82-.75,19.7-2.49,5.88-1.73,12.34-2.62,19.34-2.73,13.3-.2,26.37,4.57,36.84,12.66,10.93,8.45,20.72,19.41,26.8,31.28,4.17,8.15,9.64,18.77,6.37,28.62-2.43,7.35-7.82,13.1-15.88,17.24-9.29,4.77-19.69,7.02-29.62,8.43-10.57,1.5-21.93,2.26-32.94,2.27-44.64.06-91.21-9.76-128.11-36.19-37.73-27.03-60.45-67.29-73.71-109.82-6.67-21.41-11.45-44.71-10.83-67.27.51-18.72,3.57-38.17,12.74-55.28,8.34-15.55,21.66-29.02,36.98-37.4,18.07-9.88,39.49-13,59.67-12.96,14.02.03,28.47,2.78,41.9,7.58,13.15,4.7,25.12,12.35,35.07,22.11,10.99,10.78,18.78,23.82,25.25,37.27,7.6,15.79,12.03,33.62,15.55,50.89,4.53,22.25,10.01,47.93,3.34,70.68-6.18,21.04-27.89,24.93-46.16,25.36-15.09.36-29.73-4.2-43.41-10.46-15.99-7.31-28.87-20.67-40.56-34-1.27-1.87-3.16-4.25-5.68-7.12-2.52-2.87-4.74-4.37-6.69-4.48-1.63-.09-2.84.39-3.64,1.44-.79,1.05-.9,2.51-.3,4.37ZM456.71,353.09c1.86,7.64,2.55,13.9,1.65,18.7-.9,4.81-1.02,8.12-.43,9.97.82,2.6,2.22,4.74,4.17,6.44,1.96,1.7,3.87,2.56,5.74,2.61,3.11.08,5.07-1.42,5.91-4.5.84-3.08,1.13-6.75.92-11.01-.21-4.25-.79-8.67-1.72-13.21-.93-4.54-1.69-8.18-2.36-10.88-1.14-4.62-3.05-10.46-5.6-17.58-2.55-7.13-5.47-14.18-8.76-21.15-3.29-6.96-6.93-13.03-11.03-18.12-4.1-5.09-8.67-7.76-13.78-7.93-1.92-.07-3.5.82-4.72,2.64-1.22,1.82-1.66,3.98-1.33,6.46.33,2.48,1.68,4.68,4.02,6.6,2.34,1.92,5.14,4.78,8.42,8.53,3.28,3.75,6.55,8.91,9.79,15.33,4.18,8.29,6.93,18.2,9.1,27.1Z"/><path d="M678.32,435.52c-.73-1.58-1.7-2.9-2.9-3.95-1.2-1.05-2.38-2.19-3.51-3.42-8.56-8-18.46-14.92-29.55-18.79-8.85-3.08-18.89-5.29-28.17-6.28-8.66-.93-16.68-1.63-23.8-1.77-7.12-.14-12.62-1.76-16.38-4.85-3.34-2.75-6.45-6.16-9.26-10.25-2.81-4.08-5.33-8.41-7.53-12.98-2.2-4.56-4.1-9.38-5.64-14.43-1.54-5.06-2.79-9.59-3.49-13.36-3.32-17.87-4.08-36.96,1.34-54.98,4.89-16.25,13.16-32.11,24.77-44.62,11.53-12.43,25.75-23.41,41.01-30.21,15.81-7.05,31.77-11.4,48.89-12.65,11.93-.87,24.64,1.17,36.53,4.11,12.51,3.1,24.49,8.5,34.95,16.09,10.23,7.43,18.22,17.6,23.68,28.9,6.55,13.54,6.74,28.03,6.1,42.6-.4,9.04-2.51,19.27-5.74,27.81-3.15,8.32-6.98,15.68-11.81,22.02-4.83,6.35-10.31,11.34-16.65,15.05-6.35,3.71-13.1,5.93-20.39,6.64-6.13.6-12.48-.13-19.04-2.24-6.57-2.11-12.78-4.58-18.59-7.4-5.81-2.82-10.76-5.48-14.82-7.96-4.07-2.48-6.7-3.7-7.9-3.6-1.21.1-1.69.9-1.44,2.38.57,3.35,1.54,5.6,2.83,6.8,1.29,1.2,3.02,2.64,5.17,4.31,5.05,4.02,11.08,7.34,17.98,9.99,6.91,2.65,14.02,4.87,21.3,6.67,7.28,1.8,14.42,3.04,21.39,3.73,6.97.69,13.2,1.17,18.46,1.22,6.68.06,12.84,1.67,18.25,5.03,5.41,3.36,10.21,7.62,14.5,12.71,4.29,5.08,8.11,10.85,11.55,17.22,3.44,6.38,6.69,12.63,9.61,18.5,6.3,12.65,12.09,26.04,13.7,40.24,1.04,9.12-1,21.63-5.79,29.56-4.74,7.84-13.97,16.06-22.41,19.69-11.74,5.06-22.69,8.31-35,9.79-12.14,1.46-24.79,1.06-37.38.11-13.96-1.06-28.05-4.6-41.4-9.39-13.88-4.98-27.02-12.2-38.79-20.9-12.31-9.1-22.51-21.67-29.73-35.11-3.38-6.3-5.94-12.88-7.71-19.64-1.77-6.75-2.48-13.27-1.84-18.87.64-5.6,2.91-10.29,6.71-14.01,3.8-3.73,9.39-5.7,16.61-6.01,11.17-.48,21.84,3.04,31.42,7.29,10.72,4.76,21.48,11.17,32.01,17.43,3.42,2.35,5.99,3.75,7.7,4.25.84-.08.9-.89.16-2.48Z"/><path d="M774.35,267.03c.84-4.94,2.22-10.99,4.36-18.27,2.14-7.26,5.15-14.5,9.05-21.68,3.89-7.17,8.5-13.73,13.72-19.61,5.2-5.87,10.78-9.09,15.8-9.99,5.58-1,11.28-1.89,16.56-1.97,5.28-.08,11.2-2.09,17.92-6.07,4.86-11.17,9.82-22.49,15.41-32.95,5.23-9.8,11.64-19.55,19.06-28.04,6.5-7.44,15.73-15.04,24.58-19.66,9.56-4.99,20.75-7.88,31.23-7.79,13.32.12,32.72,1.99,34.22,18.75,1.8,20.16-14.11,43.44-23.54,60.63-1.5,2.69-2.24,4.03-3.67,6.69-2.64,4.54-3.91,6.78-6.35,11.23-1.18,2.35-1.76,3.52-2.89,5.85,9.55,2.29,16.23,7.43,19.7,14.88,4.61,9.91,1,22.71-2.52,32.56-4.41,12.36-10.37,24.65-18.54,35.13-7.16,9.19-16.66,16.58-27.82,20.28-.62,5.59-.85,8.35-1.15,13.81-.35,9.95-3.85,21.48-8.2,30.2-4.55,9.12-9.57,18.73-15.18,27.43-5.33,8.27-9.78,15.37-13.67,21.29-3.9,5.92-5.41,9.78-4.8,11.63.4,1.24,1.06,2.47,2.28,3.55,1.23,1.07,2.4,1.53,3.52,1.37,1.67-.24,3.38-3,5.77-8.51,2.39-5.5,5.36-11.6,9.06-18.31,3.7-6.7,8.22-13.07,13.5-19.04,5.28-5.97,11.02-9.37,16.9-10.13,6.16-.8,11.54.83,16.23,4.78,4.69,3.95,8.79,8.82,12.43,14.57,3.65,5.74,6.83,11.81,9.6,18.19,2.77,6.38,5.87,11.67,7.87,16.22,7.84,17.86,17.66,40.35,12.83,60.54-4.65,19.44-24.07,26.04-41,29.17-12.35,2.28-25.88,1.78-38.38-1.46-11.88-3.08-23.21-8.22-33.35-15.14-10.71-7.3-20.3-16.21-28.45-26.26-8.81-10.87-16.96-22.86-22.67-35.26-6.11-13.25-9.77-28.45-12.26-42.76-2.6-14.93-3.27-30.34-3.09-45.9.07-3.98.95-7.17,2.54-9.53,1.59-2.36,3.46-4.39,5.57-6.08,2.1-1.68,4.39-3.3,6.84-4.85,2.44-1.54,4.77-3.53,7.01-5.98-5.48.93-11.12.76-16.94-.53-5.82-1.29-11.17-3.68-15.97-7.23-4.79-3.55-8.58-8.3-11.18-14.35-2.6-6.04-3.34-13.15-1.93-21.39Z"/><path d="M526.38,792.8c-.53,1.28.26,2.21,2.36,2.79,8.55,4.05,19.61,8.56,20.9,19.53,1.36,11.61-4.32,23.5-10.32,33.05-15.54,24.71-39.71,45.55-65.09,59.27-23.21,12.54-48.81,22.13-76.01,21.49-8.47-.2-15.94-1.66-22.61-4.29-6.66-2.63-11.9-6.34-15.91-11.03-4.01-4.7-6.32-10.58-7.14-17.55-.82-6.98.37-15.36,3.74-24.44,2.53-6.8,5.71-14.02,9.02-21.39,3.31-7.37,6.11-14.39,8.09-20.87,4.89-16.05,8.88-32.87,12.17-49.49,3.13-15.79,6.04-31.85,9.07-47.77,2.79-14.62,6.33-29.38,10.66-43.27,4.22-13.51,5.1-27.9,9.44-41.75,4.04-12.88,11.17-24.79,20.59-34.3,10.72-10.82,25.42-18.53,40.01-22.31,11.47-2.97,22.72-4.77,34.49-5.54,11.89-.78,24.31-1.01,36.43-1.25,5.98-.12,11.95-.09,17.83.05,5.89.14,11.84.29,17.81.36,7.33.09,14.48.23,21.37.53,6.89.3,13.7,1.13,20.45,2.51,6.74,1.38,13.48,3.5,20.17,6.38,6.7,2.87,13.68,6.9,20.86,12.08,9.04,7.62,17.89,15.36,22.75,26.41,3.6,8.19,4.75,15.77,3.25,22.61-1.49,6.84-4.71,12.98-10.66,18.2-5.96,5.23-13.52,9.39-22.29,12.54-8.8,3.17-19.3,5.1-28.6,5.54-3.97.19-7.65.42-10.94.59-3.3.17-6.79.21-10.48.11-5.76-.05-8.65-.08-14.46-.16-4.1-.09-7.84-.07-11.23.07-3.38.15-6.98.3-10.76.45-3.04.12-6.09.67-9.18,1.63-3.1.97-4.71,2.88-4.89,5.73-.18,2.86,1.72,4.37,5.73,4.5,4.01.13,7.36.14,10.03.03,12.32-.49,24.88-1.1,37.02-1.26,11.54-.15,23.61.53,34.93,2.63,8.5,1.58,19.26,6.25,25.51,12.65,7.72,7.9,8.23,20.13,6.15,30.2-3.16,15.29-13.97,29.31-27.68,36.97-15.54,8.68-33.55,11.58-50.74,12.55-5.66.32-11.47-.23-17.09-1.31-5.63-1.08-11.04-2.34-16.21-3.75-5.18-1.41-9.99-2.68-14.38-3.79-4.4-1.12-8.39-1.61-11.95-1.5-1.98.06-4.33.61-7.09,1.64-2.75,1.03-4.45,2.35-5.11,3.94Z"/><path d="M674.66,593.15c-4.47-7.85-6.57-14.75-6.23-20.69.35-5.94,2.46-10.94,6.36-15.01,3.9-4.07,9.09-7.26,15.59-9.57,6.49-2.31,13.22-3.89,20.45-4.64,2.31-.24,5.75-.53,10.3-.87,4.54-.34,9.35-.29,14.42.16,5.07.45,9.88,1.42,14.44,2.92,4.56,1.5,8.06,4,10.45,7.47,1.11,1.61,1.26,3.18.47,4.72-.79,1.54-1.76,2.96-2.9,4.24-1.14,1.29-2.3,2.43-3.49,3.43-1.19,1-1.7,1.64-1.52,1.9.21.32.32.48.53.8,1.4.7,3.1.94,5.12.7,2.3-.27,3.98-1.11,5.04-2.53,1.05-1.42,1.91-2.89,2.57-4.41.66-1.52,1.21-2.96,1.66-4.32.45-1.36,1.24-2.1,2.37-2.24.56-.07,1.06.09,1.47.47.42.38,1.09.81,2.03,1.27,6.72,3.52,11.98,7.06,15.78,10.63,3.8,3.57,7.48,8.02,10.96,13.35,5.04,7.74,7.48,14.63,7.36,20.69-.12,6.06-2.08,11.34-5.8,15.79-3.72,4.46-8.96,8-15.61,10.59-6.66,2.6-14.01,4.3-21.98,5.12-7.98.82-16.3.71-25.08-.36-8.78-1.08-17.2-3.21-25.26-6.38-8.07-3.17-15.49-7.48-22.35-12.9-6.86-5.42-12.51-12.21-17.14-20.33ZM645.4,877.45c9.99-13.36,19.72-26.9,28.33-41.2,14.18-23.56,25.74-47.04,34.2-73.23,4.95-20.44,8.02-40.69,7.06-61.81-.14-3.2-.45-6.37-.92-9.52-.47-3.14-.49-6.38-.34-9.48.3-6.14,1.95-11.88,4.64-16.86,2.69-4.98,6.26-9.29,10.78-12.96,4.52-3.67,9.73-6.54,15.69-8.63,5.95-2.09,11.99-3.45,18.18-4.08,6.49-.66,13.59-.75,21.29-.27,7.7.47,15.09,1.97,22.08,4.32,6.54,2.2,12.18,4.68,16.74,7.53,4.56,2.85,8.17,6.14,10.76,9.88,2.58,3.73,4.65,7.94,6.1,12.6,1.46,4.67,2.67,10,3.47,16.04,1.87,17.98,1.78,35.07-.12,53.07-2.62,17.8-8.09,34.81-14.29,51.64-3.54,9.53-7.71,19.02-12.27,28.1-2.48,5-5.44,10.85-9.08,17.59-3.65,6.76-7.73,13.55-12.24,20.36-4.52,6.81-9.64,13.66-15.33,20.5-5.71,6.85-11.91,12.95-17.86,18.24-7.72,6.86-17.16,13.6-26.23,18.65-9.04,5.03-19.02,9.8-28.81,13.38-9.55,3.49-18.53,6.17-26.74,7.85-8.2,1.68-15.33,2.44-21.28,2.27-7.35-.2-13.57-1.93-18.82-5.06-5.25-3.14-8.53-7.54-10.08-13.09-1.55-5.54-1.14-12.24.94-19.96,2.6-9.66,8.52-17.81,14.16-25.86Z"/><path d="M950.83,880.07c3.02-5.45,6.07-10.46,9.34-14.77,3.27-4.3,6.34-8.23,9.26-11.81,2.91-3.57,5.42-6.56,7.58-8.99,2.15-2.42,3.57-4.51,4.27-6.25.53-1.3.7-2.16.56-2.59-.32,0-.64-.2-.95-.62-.31-.41-.79-.62-1.43-.61-3.21.07-6.73,2.6-10.79,7.62-4.07,5.03-8.7,11.42-14.15,19.26-6.14,8.85-12.81,17.4-19.56,25.72-7.84,9.67-16.87,18.57-26.43,26.65-9.93,8.39-20.98,15.47-32.72,21.03-11.1,5.25-24.06,8.8-35.66,7.87-12.93-1.04-27.77-5.18-29.03-21.66-1.19-15.67,2.47-32.61,6.94-47.7,5.47-18.47,11.82-36.94,17.88-55.22,5.43-16.38,10.3-33.13,14.48-49.91,3.89-15.62,7.42-31.44,10.27-47.25,2.7-14.96,5.3-30.14,8.89-44.97,2.98-12.29,7.84-24.32,14.81-34.67,7.11-10.57,20.33-16.06,32.55-17.11,13.01-1.11,24.15-.2,36.78,2.88,12.78,3.11,25.54,10.06,35.03,19.9,1.69,1.73,3.22,2.52,4.62,2.35,1.95-.23,2.88-1.47,2.76-3.72-.1-.31-.62-1.05-1.58-2.23-9.42-9.19-19.52-17.75-28.12-27.55-8.54-9.73-16.23-19.79-23.65-30.57-5.71-8.3-12.31-20.39-8.51-30.45,3.54-9.38,15.06-12.1,23.35-13.78,6.56-1.33,14.55-.63,22.74,1.29,8.19,1.92,16.3,4.99,24.29,9.24,7.99,4.25,15.49,9.45,22.39,15.62,6.91,6.17,12.78,12.98,17.25,20.36,11.43,18.88,21.63,38.03,27.68,59.05,6.26,21.71,10.52,44.77,12.32,67.31,1.34,16.75,1.26,34.15.28,51.09-1.08,18.71-3.96,37.51-7.31,56.14-.93,5.71-2,11.18-3.17,16.37-1.17,5.2-2.68,10.74-4.77,16.17-4.56,11.85-10.2,22.84-16.91,33.68-6.71,10.83-15.28,21.01-24.66,29.96-8.69,8.29-18.74,15.38-29.1,21.04-8.25,4.51-20.08,8.01-29.65,7.67-6.57-.23-12.33-1.93-17.1-5.2-4.77-3.27-8.08-7.78-10.05-13.41-1.97-5.63-2.18-12.55-.94-20.58,1.39-9,5.58-18.87,9.91-26.68ZM933.63,781.21c-.59,2.27-1.4,5.59-2.56,9.99-1.16,4.42-2.14,8.89-2.92,13.38-.79,4.51-1.17,8.48-1.07,11.85.1,3.39,1.54,5.06,4.41,4.97,1.91-.06,3.96-1.03,6.1-2.91,2.14-1.88,3.65-4.04,4.52-6.46,1.6-4.44,2.66-9.41,3.11-14.85.44-5.43,1.33-10.81,2.66-16.15,1.61-6.47,3.62-13.34,5.88-20.56,2.26-7.22,4.62-14.25,7.1-21.13,2.48-6.86,5.13-13.24,8.06-19.16,2.93-5.91,6.07-11.04,9.57-15.43,1.87-2.54,4.64-5.17,8.3-7.87,3.65-2.71,5.25-5.73,4.77-9.03-.29-1.98-1.21-3.64-2.74-4.98-1.53-1.34-3.16-1.91-4.88-1.73-2.01.21-4.03,1.16-6.09,2.86-2.07,1.7-3.74,3.28-5,4.73-4.61,4.77-8.62,10.72-12.32,17.93-3.7,7.22-7.07,14.97-10.26,23.31-3.2,8.35-6.21,16.97-9.11,25.91-2.91,8.95-5.49,17.4-7.55,25.33Z"/><path d="M1166.57,672.16c1.99-.14,2.95-1.48,2.85-3.98-.02-5.38-.52-10.94-1.53-16.65-1-5.72-1.78-11.12-2.28-16.24-1.76-16.49-5.38-35.33-.11-51.3,5.22-15.86,21.99-19.45,36.44-21.21,18.69-2.28,39.18,3.04,55.78,12.48,17.37,9.88,33.22,23.84,45.42,39.65,13.88,17.98,24.66,38.53,32.13,59.46,7.55,21.18,13.04,43.91,16.07,66.68,2.57,19.28,3.28,39.2,2.41,58.21-1.03,22.52-5.52,45.27-13.36,66.21-7.56,20.19-19.28,39.93-34.54,56.05-12.92,13.65-32.08,23.99-51.25,23.23-5.47-.22-11.98-.59-19.21-1.33-7.24-.75-13.78-2.63-19.58-5.58-5.8-2.96-9.78-7.99-11.91-14.89-2.57-8.31-.04-20.1,2.71-27.79,2.72-7.58,5.89-15.97,9.83-24.29,4.06-8.58,7.97-17.32,11.68-26.02,3.88-9.09,7.32-18.8,10.15-28.22,2.89-9.6,5.02-20.71,5.24-30.67.36-15.61-.66-31.05-6.22-46.04-5.08-13.7-12.23-26.2-19.99-38.58-.87-1.48-1.64-2.87-2.34-4.17-.69-1.29-1.78-1.9-3.24-1.82-.29.02-1.11.35-2.46.98-1.35.64-1.95,1.34-1.81,2.09.14.76.17,1.33.1,1.7-.08.39.1.95.53,1.69,1.35,2.6,2.9,5.22,4.63,7.83,1.74,2.62,3.41,5.46,5.01,8.53,10.98,20.09,14.54,42.74,13.82,64.74-.5,15.34-4.61,31.05-9.45,45.46-6.08,18.08-15.05,35.95-25.58,51.93-10.56,16.03-23.65,31.51-38.24,43.44-11.18,9.15-24.32,17.72-40.14,17.71-17.6,0-36.77-9.09-38.3-28.54-1.89-24.12,6.74-50.3,13.49-73.44,10.49-35.95,16.42-72.8,14.08-109.65-1.97-31.12-8.99-61.92-19.23-91.84-3.2-9.33-5.49-17.63-6.2-25-.72-7.36-.14-13.86,1.88-19.57,2.02-5.71,5.46-10.32,10.42-13.87,4.96-3.54,11.1-5.75,18.47-6.59,2.18-.25,4.82-.47,7.92-.66,3.1-.19,6.29,0,9.57.58,3.28.58,6.35,1.66,9.2,3.25,2.85,1.58,5.25,4.02,7.16,7.3,3.3,5.68,6.05,12.35,8.12,20.06,2.07,7.72,3.69,15.61,4.58,23.87.88,8.26,1.58,16.32,2.11,24.16.53,7.84,1.32,14.29,2.61,19.22.28,1.06,1.12,1.54,2.54,1.43Z"/><path d="M1427.3,727.17c.54,2.92,1.77,6.01,3.69,9.28,1.92,3.27,3.49,6.02,4.75,8.22,9.36,15.17,19.52,31.19,33.66,41.63,12.74,9.41,25.56,15,41.14,17.02,7.08.92,14.48.24,21.26-1.31,6.77-1.55,13.97-1.98,21.42-1.15,14.06,1.57,27.45,9.8,34.7,22.18,8.89,15.19,12.14,31.46,12.81,48.72.6,15.47-3.43,32.18-12.16,45.09-7.53,11.13-17.92,20.52-29.9,26.92-11.72,6.26-24.64,10.68-37.67,12.4-11.68,1.55-23.81,3-35.59,2.42-44.17-2.15-80.63-20.78-97.35-64.38-18.65-48.63-20.99-103.53-28.02-154.59-3.27-23.79-7.35-47.88-9.53-71.61-1.57-17.06-2.57-35.32,1.62-52.19,3.3-13.3,12.93-24.51,25.04-30.6,17.02-8.57,36.55-9.6,54.74-8.81,15.07.65,30.86,3.3,45.38,7.43,15.11,4.3,29.79,10.91,43.27,19.24,13.73,8.47,26.01,20.46,35.54,33.98,11.11,15.76,18.29,33.25,22.31,51.29,5.54,24.83,7.19,53.44-5.53,77.59-11.05,20.99-35.02,28.19-56.64,25.28-14.77-1.99-28.52-6.55-40.86-15.93-14.14-10.75-24.03-26.38-33.15-41.4-.99-2.15-2.55-4.87-4.68-8.11-2.14-3.24-4.15-4.92-6.01-5.06-1.55-.11-2.73.41-3.56,1.58-.84,1.17-1.05,2.79-.67,4.87ZM1492.5,692.64c2.08,7.92,2.27,14.76,1.01,19.89-1.26,5.13-1.7,8.77-1.29,10.85.58,2.92,1.75,5.39,3.54,7.42,1.79,2.03,3.64,3.14,5.56,3.32,3.2.31,5.45-1.23,6.72-4.59,1.26-3.36,1.98-7.38,2.14-12.04.15-4.64-.16-9.42-.94-14.29-.78-4.87-1.54-8.71-2.22-11.55-1.17-4.86-3.25-10.97-6.31-18.25-3.06-7.28-6.74-14.36-11.01-21.22-4.27-6.85-9-12.73-14.11-17.63-5.11-4.9-10.35-7.51-15.59-7.86-1.97-.13-3.4.61-4.29,2.23-.89,1.62-.95,3.58-.19,5.88.76,2.3,2.47,4.39,5.13,6.28,2.66,1.88,5.93,4.67,9.77,8.39,3.83,3.71,7.76,8.81,11.65,15.3,5.16,8.59,7.95,18.45,10.43,27.88Z"/><path d="M1705.34,682.62c4.29.73,6.56-.99,6.78-5.2-.05-.39,0-.67.18-.84.17-.16.23-.44.18-.84-.16-1.18-.24-1.77-.4-2.96-.05-.39,0-.67.18-.83.17-.16.23-.44.18-.83.02-5.07.02-7.6.04-12.65.24-1.11.28-2.25.12-3.42-.16-1.17-.13-2.32.12-3.42,3.04-14.74,7.47-28.08,18.73-38.25,12.89-11.65,33.44-11.35,49.58-8.16,13.94,2.76,27.54,6.65,39.89,14.34,10.4,6.47,20.21,14.99,26.75,24.92,6.65,10.09,11.36,20.01,14.14,31.48,2.65,10.92,3.32,22.24,3.16,33.93-.13,9.18-1.95,19.33-4.39,28.27-2.55,9.33-6.36,17.56-11.46,24.56-5.1,7-11.83,12.17-19.85,15.63-9.62,4.16-20.31,3.32-30,1.89-5.59-.82-11.14-2.83-16.16-5.3-5.02-2.47-9.58-5.06-13.67-7.76-4.09-2.7-7.44-5.07-10.01-7.1-2.57-2.03-4.43-3.15-5.56-3.35-1.14-.2-1.92.55-2.35,2.25-.43,1.7-.66,3.74-.67,6.11-.02,2.37.05,4.67.2,6.87.15,2.21.24,3.52.26,3.92.79,11.69,1.42,23.53,1.77,35.12.41,13.45.18,27.07-.55,40.54-.73,13.51-2.65,27.18-5.36,40.54-2.54,12.52-6.54,25.36-12.79,36.02-5.64,9.62-12.54,19-22,25.83-9.4,6.79-21.2,9.77-32.75,9.34-9.04-.34-17.59-2.94-25.4-7.59-7.57-4.5-15.29-12.45-20.02-19.73-5.48-8.43-10.55-19.31-13.04-29.09-2.95-11.6-4.55-22.54-4.9-34.41-.25-8.49-.02-17.15.16-25.4.18-8.24.31-16.51.41-24.81.16-10.98.19-21.93.1-32.91-.24-8.51-.63-16.52-1.14-24.06-.5-7.54-1.36-15.26-2.61-23.18-1.18-7.49-2.69-14.97-4.53-22.43-1.84-7.46-3.76-14.79-5.9-21.67-3.44-11.06-7.7-21.65-12.39-32.37-4.6-10.5-8.98-21.07-11.8-32.19-2.57-10.14-2.75-18.33-1.09-25.74s4.74-13.78,9.41-19.14c4.65-5.35,11.03-9.24,19.01-11.73,8.46-2.64,19.36-3.17,28.01-1.78,17.05,2.75,34.44,7.54,47.88,19.28,11.91,10.41,19.84,25.56,21.17,41.27.66,7.83.57,16.36-1.15,24.49-1.72,8.14-2.25,14.22-1.68,18.17.34,2.37,2.06,3.82,5.19,4.36Z"/><text class="cls-4" transform="translate(3 464.19)"><tspan class="cls-7" x="0" y="0">F</tspan><tspan x="278.69" y="0">est </tspan><tspan class="cls-6" x="0" y="446.63">	</tspan><tspan x="267.98" y="446.63">Fidner</tspan></text></g><path d="M34.86,197.57c-2.55-.82,1.01-53.15,36.52-85.22,17.82-16.09,38.93-22.77,40.58-20.29,2.14,3.22-29.51,20.12-54.78,58.84-17.67,27.07-20.72,47.18-22.32,46.67Z"/><path d="M581.69,249.15c.54,15.4.82,23.1,3.33,28.06,14.1,27.82,76.47,22.51,76.79,19.78.24-2.04-34.8,2.61-56.81-20.29-24.6-25.59-17.1-69.1-20.29-68.98-2.24.08-3.73,21.34-3.02,41.43Z"/><path d="M580.65,548.58c-.32-.03-4.71-23.86,8.12-38.55,12.84-14.71,37.01-13.48,36.99-13.58-.01-.06-10.39-.15-21.27,6.45-11.8,7.16-17.04,17.87-18.69,21.36-6.16,13.01-4.93,24.33-5.15,24.31Z"/><path d="M385.35,551.25c-2.45-4.32-35.56,2.42-58.56,26.03-29.64,30.42-30.55,76.57-26.03,78.08,3.16,1.05,7.74-20.12,29.28-48.8,28.26-37.63,57.76-50.97,55.31-55.31Z"/><path d="M756.24,778.99c3.6-1.3-20.35-42.22-5.44-80.36,6.16-15.75,18.21-29.15,27.68-39.67,0,0,6.75-7.51,29.82-29.62h0s-30.16,14.15-47.57,33.44c-20.66,22.91-27.59,57.78-20.07,86.59,4.43,16.99,13.5,30.38,15.59,29.62Z"/><path d="M1771.96,603.99c.34-2.98,29.25-9.34,49.72,5.07,28.26,19.9,23.24,67.31,20.54,67.85-2.39.49-2.07-35.8-28.65-56.69-19.35-15.21-41.9-13.58-41.6-16.23Z"/><path d="M1416.73,635.28c-1.67-2.71-27.09,3.59-42.05,23.13-16.15,21.1-13.94,49.6-10.51,50.46,3.19.79,6.05-22.72,27.33-48.35,14.01-16.88,26.47-23.21,25.23-25.23Z"/><path d="M922.53,91.04c1.25-1.57-6.11-13.91-14.56-13.15-6.73.61-10.42,9.18-12.05,12.94-7.69,17.82-.03,36.6,0,36.6.02,0-3.51-10.3,0-21.87,1.15-3.78,2.73-6.64,4.46-8.93,1.78-2.34,5.35-7.05,10.71-8.03,6.23-1.14,10.58,3.52,11.44,2.44Z"/><path d="M977.24,330.8c.46-1.18,9.45-23.68,23.89-23.89,10.6-.16,20.56,11.74,20.22,12.26-.09.14-1.96-.81-5.71-2.71-4.57-2.32-4.57-2.55-6.17-3.18-1.9-.75-5.5-2.17-9.73-1.4-3.06.55-5.32,2.04-8.16,3.91-1.56,1.03-2.79,2.01-3.63,2.73"/></g><g id="FLOWER"><path class="cls-3" d="M1417.61,249.33c14.4,24.31,13.4,48.24-2.96,71.12-14.81,21.59-38.85,34.72-63.76,37.25,14.45,10.78,25.59,26.26,29.2,44.78,9.25,53.19-21.58,97.93-74.79,93.35-27.27-1.47-52.31-19.26-64.97-44.48-3.28,5.28-6.91,10.31-10.95,15-18.9,21.01-47.64,35.77-75.3,28-47.57-10.86-67.76-75.71-41.32-117.06,3.35-5.92,7.51-11.25,12.21-16.01-20.26-4.7-39.43-15.87-49.33-35.54-7.88-15.53-11.53-33.52-10.07-50.92,5.48-49.98,61.86-80.02,104.71-61.7,1.51.59,3.04,1.18,4.57,1.79-3.34-22.75,2.33-47.25,15.48-65.41,17.04-22.62,46.97-34.04,73.66-27.59,16.35,4.36,32.4,15.11,41.38,30.38,11.66,19.75,13.3,44.13,7.25,66.15,17.1-8.46,36.7-11.05,55.22-6.7,21.12,3.38,38.99,18.54,49.76,37.6Z"/><path d="M1173.13,379.08c-.3-.19-.53-.45-.75-.73-.35-.44-.68-.9-1-1.36-.77-1.12-1.48-2.28-2.17-3.45-1.42-2.4-2.71-4.89-3.95-7.4-1.23-2.49-2.34-5.04-3.32-7.64-.98-2.63-1.91-5.3-2.73-7.99-.42-1.39-.8-2.79-1.13-4.21-.32-1.4-.6-2.81-.88-4.22-.56-2.81-1.14-5.62-1.44-8.48-.15-1.46-.21-2.92-.25-4.38-.04-1.56-.08-3.13-.05-4.67v-.3c.04-2.43.2-4.85.42-7.27.2-2.32.44-4.64.76-6.94l.02-.17c.48-3.52,1.2-7.01,1.95-10.48.16-.73.85-1.21,1.54-1.05.69.16,1.16.9,1,1.63-.73,3.37-1.41,6.75-1.91,10.17,0,.04-.01.08-.02.12-.01.1-.03.2-.04.3-.3,2.21-.52,4.43-.71,6.65-.21,2.32-.37,4.66-.4,6.82,0,.16,0,.32,0,.47,0,.06,0,.12,0,.18-.01,1.56.02,3.12.06,4.67.04,1.46.12,2.92.27,4.37.24,2.03.62,4.03,1.01,6.04.39,2.02.78,4.04,1.24,6.05.85,3.57,2.02,7.05,3.24,10.41.71,1.92,1.46,3.82,2.29,5.69.8,1.8,1.67,3.56,2.56,5.31,1.42,2.76,2.93,5.48,4.65,8.04.36.53.73,1.05,1.14,1.53.02.02.04.04.05.05-.01-.01-.02-.02-.03-.04l-.08-.06s-.05-.04-.08-.05c.57.4.82,1.15.49,1.82-.22.45-.7.75-1.18.75-.2,0-.4-.05-.57-.16Z"/><path d="M1164.54,282.73c-.57-.92.2-1.67.61-2.39,2.42-4.46,4.81-8.97,7.87-12.99,5.1-6.64,10.7-12.95,17.23-18.05,5.24-4.08,10.91-7.49,16.8-10.4,1.54-.71,2.64,1.68,1.09,2.49-13.24,6.4-23.26,14.82-32.39,26.74-1.86,2.45-3.59,5.01-5.13,7.7-1.05,1.84-2.01,3.73-3.05,5.57-.37.61-.66,1.32-1.23,1.75-.59.41-1.42.19-1.79-.43Z"/><path d="M1328.76,340.61c-1.29-.25-1.12-1.6-1-2.57.21-2.67.32-5.35.37-8.03.31-10.24-.85-20.5-3.03-30.44-2.96-12.2-8-23.87-15.72-33.5-11.52-14.12-30.33-26.04-47.41-30.47-9.69-1.83-19.63-2.14-29.41-1.05-3.59.4-7.12,1.2-10.63,2.06-1.62-.02-1.74-2.7.04-2.75-.05,0-.1,0-.15,0-.01,0-.02,0-.02,0,9.64-2.69,19.73-3.09,29.65-2.37,10.43.33,20.49,3.74,29.71,8.78,18.76,9.92,34.73,24.53,42.39,45.61,4.95,12.58,7,26.11,7.22,39.66.03,4.64-.09,9.29-.52,13.91-.07.75-.81,1.26-1.48,1.15Z"/><path d="M1275.74,409.41c-.32-.67-.05-1.51.58-1.84,2.46-1.3,4.87-2.68,7.15-4.08,4.51-2.78,8.92-5.77,13.04-9.17,11.87-9.46,23.91-28.17,27.78-43.32-.02.13-.03.27,0,.4-.19-1.71,2.19-2.19,2.56-.47.08.5-.08.98-.2,1.46-2.78,10.32-8.08,19.68-14.05,28.28-6.62,9.88-15.67,17.57-25.46,23.71-3.14,2.02-6.35,3.92-9.65,5.65-.62.34-1.43.06-1.75-.61Z"/><path d="M1233.01,416.94c-8.16-.92-16.02-3.72-23.52-7.14-2.54-1.17-5.08-2.4-7.51-3.81-1.51-.88-2.99-1.8-4.47-2.74-.3-.19-.53-.44-.64-.79-.38-1.1.86-2.25,1.84-1.64,1.8,1.15,3.61,2.29,5.48,3.32,1.88,1.04,3.81,1.98,5.75,2.89,17.75,8.63,35.14,9.94,53.86,3.99.7-.14,1.39.37,1.51,1.11.28,1.91-2.56,1.91-3.76,2.42-3.91,1.06-7.89,1.83-11.9,2.35-5.53.72-11.12.69-16.66.05Z"/><path d="M1126.7,360.06c-.34-.63-.14-1.53.49-1.88,9.64-5.39,20.25-8.34,30.76-11.18,2.1-.44,2.36,3.1.15,2.77-5.31,1.51-10.75,3-15.97,4.78-3.93,1.39-7.8,2.99-11.44,4.84-1.23.45-2.93,2.32-3.99.67Z"/><path d="M1236.66,444.61c-1.43-6.49-2.39-13.27-3.12-19.86-.2-1.8-.34-3.6-.4-5.41.03-1.27-.32-2.71.3-3.87,1.12-1.42,2.84-.13,2.25,1.55,0,5.38.8,10.72,1.54,16.03.53,3.72,1.18,7.42,1.99,11.08.28,1.76-2.19,2.27-2.56.49Z"/><path d="M1350.07,359.15c-4.24-.28-8.41-1.45-12.48-2.72-1.5-.5-2.97-1.07-4.44-1.65-.66-.26-1.01-1.07-.76-1.77.25-.7,1.01-1.06,1.67-.8,5.14,2.05,10.65,3.74,16.1,4.2,2.29-.11,2.09,3.3-.1,2.74Z"/><path d="M1295.79,247.2c-1.62-1.33.54-2.99,1.23-4.2,4.52-6.73,8.32-14.01,11.69-21.45.75-1.6,3.05-.49,2.35,1.17-2.09,4.75-4.47,9.35-7,13.85-1.9,3.46-4.02,6.9-6.34,9.98-.31.79-1.25,1.12-1.93.65Z"/><path d="M1192.87,249.49c-.33-.02-.6-.17-.84-.41.02.02.04.04.06.06.04.03.08.06.12.1-10.13-7.5-16.73-21.73-18.98-34.34-.28-1.76,2.18-2.3,2.55-.53,1.59,8.95,5.04,17.4,10.22,24.62,2.15,2.91,4.51,5.74,7.43,7.81,1.33.62.91,2.77-.56,2.69Z"/><path d="M1183.18,356.29c-2.34-1.66-10.28-23.11-5.62-23.35,1.08-.25,2.27.51,2.47,1.68.8,4.97,2.06,9.99,3.96,14.59.46,2.21,3.23,4.15,2.07,6.46-.62.99-1.96,1.29-2.89.62Z"/><path d="M1077.92,282.35c-4.51-.97,1.71-16.01,2.77-19.11,2.44-6.36,5.8-12.35,10.36-17.27,1.73-2.17,4.96.76,3.15,2.88-2.44,2.63-4.56,5.58-6.31,8.76-2.79,5.34-5.03,11.04-6.52,16.94-1.15,2.41.24,8.1-3.45,7.8Z"/><path d="M1199.09,167.61c-6.74-1.4,7.13-14.4,9.3-16.36,3.55-3.05,7.38-5.73,11.3-8.23,2.74-1.71,17.47-9.87,18.63-4.89.23,1.15-.48,2.39-1.6,2.61-11.37,2.26-21.53,9.63-29.76,17.82-1.38,1.52-2.67,3.12-3.86,4.77-1.32,1.39-1.81,4.27-4,4.28Z"/><path d="M1408.01,310.53c-1.02-.48-1.53-1.82-1.05-2.9,2.08-4.56,3.97-9.24,5.07-14.19,1.69-10.09,2.34-21.12-1.49-30.76-2.8-4.06,1.19-6.78,2.97-3.56,5.85,12.72,4.84,28.86.66,41.99-1.2,2.28-2.98,11.08-6.15,9.42Z"/><path d="M1306.98,482.64c-2.66-.32-2.19-4.72.5-4.37,3.7.44,7.44.48,11.16.22,8.82-.72,17.58-3.23,25.18-8.09,1.48-1.43,4.21-1.5,4.36,1.12-.28,2.59-3.99,3.38-5.79,4.73-10.88,5.72-23.36,7.73-35.41,6.39Z"/><path d="M1125.19,463.87c-9.33-11.2-12.85-26.9-13.21-41.43.4-2.55-1.14-8.36,2.42-8.52,1.12.07,2.03,1.13,1.95,2.33-.85,10.92.91,21.99,4.64,32.19,1.88,4.83,4.6,9.23,7.78,13.19,1.14,2.36-2.17,4.45-3.58,2.25Z"/><path d="M1159.24,482.84c-5.93-.84-11.84-2.51-17.09-5.6-.91-.71-2.19-1.08-2.78-2.14-.81-1.56.66-3.58,2.29-3.15,2.1.96,3.94,2.53,6.14,3.31,3.92,1.66,8.04,2.68,12.22,3.27,2.65.49,1.85,4.87-.78,4.32Z"/><path d="M1086.67,323.88c-4.89-7.19-7.93-15.68-8.98-24.44.12-2.12-1.33-5.3.84-6.6,3.54-1.28,3.08,3.55,3.27,5.86.2,1.89.56,3.75.93,5.44,1.34,6.29,3.92,12.21,7.43,17.35,1.48,2.35-2.02,4.79-3.49,2.39Z"/></g><g id="FACE"><path class="cls-5" d="M1243.3,296.98c-4.68-2.33-10.57-2.47-15.01.3-4.44,2.76-6.95,8.59-5.28,13.54,1.54,4.57,6.22,7.6,11,8.23,4.78.64,9.63-.76,14-2.8l-4.71-19.27Z"/><path class="cls-5" d="M1232.08,277.49c0,1.76-.11,3.49-.33,5.17-.34,2.66-.94,5.19-1.74,7.56-3.7,10.9-12.01,18.46-21.68,18.46s-18.36-7.93-21.93-19.23c-1.17-3.68-1.82-7.72-1.82-11.97,0-1.03.04-2.05.11-3.04,1.17-15.8,11.3-28.15,23.63-28.15,13.12,0,23.74,13.98,23.74,31.19Z"/><path class="cls-2" d="M1208.34,309.85c-10.16,0-19.21-7.87-23.04-20.05-1.24-3.91-1.87-8.06-1.87-12.32,0-1.06.04-2.11.12-3.13,1.23-16.66,11.89-29.23,24.8-29.23,13.74,0,24.92,14.52,24.92,32.37,0,1.74-.11,3.53-.33,5.31-.35,2.69-.95,5.31-1.8,7.8-3.97,11.7-12.91,19.26-22.79,19.26ZM1208.34,247.46c-11.66,0-21.32,11.64-22.46,27.06-.07.97-.11,1.95-.11,2.96,0,4.02.59,7.93,1.76,11.61,3.53,11.18,11.7,18.41,20.81,18.41s16.93-6.93,20.57-17.66c.79-2.35,1.36-4.81,1.69-7.34.21-1.68.31-3.37.31-5.02,0-16.55-10.13-30.02-22.57-30.02Z"/><path class="cls-2" d="M1191.83,277.78l7.5,4.46c-.82,4.98-3.38,8.64-6.65,8.85-4.27.27-8.11-5.46-8.59-12.81-.47-7.34,2.61-13.52,6.88-13.79,3.34-.21,6.42,3.25,7.83,8.3l-6.98,5Z"/><path class="cls-1" d="M1229.96,290.22c-3.7,10.9-12.01,18.46-21.68,18.46s-18.36-7.93-21.93-19.23c6.34-16.14,36.18-8.92,43.6.77Z"/><path class="cls-2" d="M1208.28,309.64c-10.07,0-19.03-7.81-22.84-19.9-.07-.21-.06-.43.02-.64,2.14-5.45,6.97-8.85,13.97-9.84,11.02-1.54,25.93,3.39,31.28,10.37.19.25.25.59.15.89-3.94,11.61-12.8,19.11-22.58,19.11ZM1187.37,289.49c3.61,11.09,11.79,18.23,20.91,18.23s16.85-6.78,20.6-17.31c-4.73-5.61-18.2-10.79-29.17-9.25-4.3.61-9.89,2.55-12.33,8.33Z"/><path class="cls-1" d="M1232.03,277.49c0,1.76-.11,3.49-.33,5.17-13.12-27.55-41.72-18.99-47.05-8.22,1.17-15.8,11.3-28.15,23.63-28.15,13.12,0,23.74,13.98,23.74,31.19Z"/><path class="cls-2" d="M1231.7,283.61c-.36,0-.7-.21-.86-.55-7.38-15.5-19-17.89-25.26-17.93h-.2c-9.43,0-17.49,4.93-19.87,9.73-.2.41-.67.62-1.11.5-.44-.12-.74-.54-.7-.99,1.22-16.55,11.8-29.04,24.59-29.04,13.62,0,24.7,14.42,24.7,32.15,0,1.75-.11,3.53-.33,5.29-.05.42-.38.76-.8.82-.05,0-.1.01-.15.01ZM1205.39,263.22h.2c6.29.04,17.6,2.28,25.44,16.07.03-.6.04-1.21.04-1.8,0-16.67-10.22-30.24-22.79-30.24-10.82,0-19.93,9.89-22.23,23.55,4.18-4.5,11.75-7.58,19.33-7.58Z"/><path class="cls-2" d="M1195.44,260.96c7.27-6.75,20.26-3.99,26.29,3.18.39.5-.36,1.14-.79.67-6.29-5.95-17.56-8.64-24.94-3.24-.38.34-.93-.25-.57-.61h0Z"/><path class="cls-2" d="M1194.35,287.73c7.75-5.91,20.5-3.26,27.33,2.98.46.44-.19,1.17-.68.77-7.19-5.17-18.11-7.74-26.12-3.11-.4.32-.93-.31-.53-.64h0Z"/><path class="cls-5" d="M1302.2,277.49c0,1.76-.11,3.49-.33,5.17-.34,2.66-.94,5.19-1.74,7.56-3.7,10.9-12.01,18.46-21.68,18.46s-18.36-7.93-21.93-19.23c-1.17-3.68-1.82-7.72-1.82-11.97,0-1.03.04-2.05.11-3.04,1.17-15.8,11.3-28.15,23.63-28.15,13.12,0,23.75,13.98,23.75,31.19Z"/><path class="cls-2" d="M1278.45,309.85c-10.16,0-19.21-7.87-23.04-20.05-1.24-3.91-1.87-8.06-1.87-12.32,0-1.06.04-2.11.12-3.13,1.23-16.66,11.89-29.23,24.8-29.23,13.74,0,24.92,14.52,24.92,32.37,0,1.76-.11,3.55-.33,5.32-.35,2.67-.95,5.3-1.8,7.79-3.97,11.7-12.91,19.26-22.79,19.26ZM1278.45,247.46c-11.67,0-21.32,11.64-22.46,27.06-.07.97-.11,1.95-.11,2.96,0,4.02.59,7.93,1.76,11.61,3.53,11.18,11.7,18.41,20.81,18.41s16.93-6.93,20.56-17.66c.8-2.35,1.37-4.82,1.69-7.34.21-1.67.32-3.36.32-5.02,0-16.55-10.12-30.02-22.57-30.02Z"/><path class="cls-2" d="M1261.94,277.78l7.5,4.46c-.82,4.98-3.38,8.64-6.65,8.85-4.27.27-8.11-5.46-8.59-12.81-.47-7.34,2.61-13.52,6.88-13.79,3.34-.21,6.42,3.25,7.83,8.3l-6.98,5Z"/><path class="cls-1" d="M1300.07,290.22c-3.7,10.9-12.01,18.46-21.68,18.46s-18.36-7.93-21.93-19.23c6.34-16.14,36.18-8.92,43.6.77Z"/><path class="cls-2" d="M1278.39,309.64c-10.06,0-19.03-7.81-22.84-19.9-.07-.21-.06-.43.02-.64,2.14-5.45,6.98-8.85,13.98-9.84,11.02-1.56,25.92,3.39,31.28,10.37.19.25.25.59.15.89-3.94,11.61-12.8,19.11-22.58,19.11ZM1257.48,289.49c3.61,11.09,11.79,18.23,20.91,18.23s16.85-6.78,20.6-17.31c-4.73-5.61-18.2-10.79-29.17-9.25-4.3.61-9.89,2.55-12.33,8.33Z"/><path class="cls-1" d="M1302.14,277.49c0,1.76-.11,3.49-.33,5.17-13.12-27.55-41.72-18.99-47.05-8.22,1.17-15.8,11.3-28.15,23.63-28.15,13.12,0,23.75,13.98,23.75,31.19Z"/><path class="cls-2" d="M1301.81,283.61c-.36,0-.7-.21-.86-.55-7.38-15.5-19-17.89-25.26-17.93h-.2c-9.43,0-17.49,4.93-19.87,9.73-.2.41-.67.62-1.11.5-.44-.12-.74-.54-.7-.99,1.22-16.55,11.79-29.04,24.59-29.04,13.62,0,24.7,14.42,24.7,32.15,0,1.74-.11,3.52-.33,5.29-.05.42-.38.76-.8.82-.05,0-.1.01-.15.01ZM1275.5,263.22h.2c6.29.04,17.6,2.27,25.44,16.07.03-.61.04-1.21.04-1.81,0-16.67-10.22-30.24-22.79-30.24-10.82,0-19.93,9.89-22.23,23.55,4.18-4.5,11.75-7.58,19.33-7.58Z"/><path class="cls-2" d="M1243.41,297.03c-8.97-4.23-21.02,1.4-19.27,12.06,2.74,10.24,15.76,10.13,23.99,6.39.51-.22.88.58.39.83-6.51,3.75-15.89,5.41-22.27.13-7.28-5.25-5.2-16.91,2.42-20.66,4.82-2.55,10.68-2.07,15.15.44.49.27.11,1.04-.41.82h0Z"/><path class="cls-2" d="M1265.55,260.96c7.27-6.75,20.26-3.99,26.29,3.18.39.5-.36,1.14-.79.67-6.29-5.95-17.56-8.64-24.94-3.24-.38.34-.93-.25-.57-.61h0Z"/><path class="cls-2" d="M1264.46,287.73c7.75-5.91,20.5-3.26,27.33,2.98.46.44-.19,1.17-.68.77-7.19-5.17-18.11-7.74-26.12-3.11-.4.32-.93-.31-.53-.64h0Z"/><path class="cls-2" d="M1255.68,237.83c-.95-28.15,20.27-34.83,37.32-13.42,3.84,4.85,6.81,10.33,8.51,16.18.15.51-.15,1.05-.66,1.2-.42.12-.86-.05-1.08-.4-3.26-4.89-6.79-9.43-10.75-13.45-17.03-16.64-25.87-12.07-31.44,10.11-.24,1.07-1.92.86-1.9-.22h0Z"/><path class="cls-2" d="M1227.95,241.84c-9.27-20.94-18.76-23.89-32.7-4.63-3.22,4.64-5.93,9.71-8.31,15.08-.21.5-.79.72-1.28.5-.4-.18-.61-.58-.57-.99.68-6.05,2.68-11.95,5.64-17.39,9.06-17.44,28.66-24.62,36.91-2,1.07,2.92,1.71,5.9,2.15,8.89.18,1.08-1.42,1.54-1.84.54h0Z"/><path class="cls-2" d="M1292.04,377.41c-8.72-8.39-47.46-36.59-43.52-7.09-1.27,2.86-2.24-7-1.93-7.91.87-11.25,14.13-8.87,21.21-5.41,9.73,4.56,18.55,11.18,24.94,19.82.31.43-.3.99-.69.59h0Z"/><path class="cls-2" d="M1226.56,316.73c-9.5,11.65-12.63,27.34-12.31,42.08.04.52-.79.61-.85.08-1.8-14.93,1.64-31.85,12.54-42.76.38-.36.97.19.62.59h0Z"/><path class="cls-2" d="M1259.1,314.97c14.07,7.11,27.32,22.65,31.01,38.09.11.52-.7.72-.84.2-3.88-11.7-11.93-21.69-20.79-30.08-3.02-2.78-6.26-5.34-9.78-7.45-.46-.25-.09-.99.39-.76h0Z"/><path class="cls-2" d="M1296.79,369.03c4.77,6.55,2.49,20.16-7.78,15.04-.45-.29-.95.38-.55.73,1.71,1.6,4.31,2.38,6.77,1.77,7.71-2.27,6.92-13.28,2.27-18.12-.37-.41-1.03.13-.71.58h0Z"/><path class="cls-2" d="M1241.63,362.62c-2.46,7.72,3.99,19.91,12.13,11.81.34-.42,1.02.06.75.52-1.11,2.05-3.34,3.62-5.86,3.82-8.03.28-10.76-10.41-7.87-16.48.23-.5,1.02-.2.85.33h0Z"/></g></svg>
